<svg width="375" height="45" viewBox="0 0 375 45" fill="none" xmlns="http://www.w3.org/2000/svg">
<g clip-path="url(#clip0_190_229)">
<path fill-rule="evenodd" clip-rule="evenodd" d="M304 20.1904H305C305.552 20.1904 306 20.6381 306 21.1904V27.1904C306 27.7427 305.552 28.1904 305 28.1904H304C303.448 28.1904 303 27.7427 303 27.1904V21.1904C303 20.6381 303.448 20.1904 304 20.1904Z" fill="#D1D1D6"/>
<path fill-rule="evenodd" clip-rule="evenodd" d="M299.5 22.1904H300.5C301.052 22.1904 301.5 22.6381 301.5 23.1904V27.1904C301.5 27.7427 301.052 28.1904 300.5 28.1904H299.5C298.948 28.1904 298.5 27.7427 298.5 27.1904V23.1904C298.5 22.6381 298.948 22.1904 299.5 22.1904Z" fill="#D1D1D6"/>
<path fill-rule="evenodd" clip-rule="evenodd" d="M295 23.6904H296C296.552 23.6904 297 24.1381 297 24.6904V27.1904C297 27.7427 296.552 28.1904 296 28.1904H295C294.448 28.1904 294 27.7427 294 27.1904V24.6904C294 24.1381 294.448 23.6904 295 23.6904Z" fill="#D1D1D6"/>
<path fill-rule="evenodd" clip-rule="evenodd" d="M308.5 18.1904H309.5C310.052 18.1904 310.5 18.6381 310.5 19.1904V27.1904C310.5 27.7427 310.052 28.1904 309.5 28.1904H308.5C307.948 28.1904 307.5 27.7427 307.5 27.1904V19.1904C307.5 18.6381 307.948 18.1904 308.5 18.1904Z" fill="#3C3C43" fill-opacity="0.18"/>
<path fill-rule="evenodd" clip-rule="evenodd" d="M304 20.1904H305C305.552 20.1904 306 20.6381 306 21.1904V27.1904C306 27.7427 305.552 28.1904 305 28.1904H304C303.448 28.1904 303 27.7427 303 27.1904V21.1904C303 20.6381 303.448 20.1904 304 20.1904Z" fill="black"/>
<path fill-rule="evenodd" clip-rule="evenodd" d="M299.5 22.1904H300.5C301.052 22.1904 301.5 22.6381 301.5 23.1904V27.1904C301.5 27.7427 301.052 28.1904 300.5 28.1904H299.5C298.948 28.1904 298.5 27.7427 298.5 27.1904V23.1904C298.5 22.6381 298.948 22.1904 299.5 22.1904Z" fill="black"/>
<path fill-rule="evenodd" clip-rule="evenodd" d="M295 23.6904H296C296.552 23.6904 297 24.1381 297 24.6904V27.1904C297 27.7427 296.552 28.1904 296 28.1904H295C294.448 28.1904 294 27.7427 294 27.1904V24.6904C294 24.1381 294.448 23.6904 295 23.6904Z" fill="black"/>
<path d="M324.133 25.1299C324.772 25.1299 325.394 25.2979 325.941 25.6183L326.163 25.7482C326.331 25.8466 326.361 26.077 326.223 26.2145L324.329 28.1033C324.212 28.2193 324.024 28.2193 323.907 28.1033L322.026 26.2266C321.888 26.0897 321.917 25.8605 322.084 25.7614L322.303 25.6309C322.855 25.3024 323.485 25.1299 324.133 25.1299Z" fill="black"/>
<path d="M324.133 21.6602C325.724 21.6602 327.251 22.1879 328.495 23.1652L328.671 23.3033C328.811 23.4135 328.824 23.621 328.697 23.7468L327.567 24.8744C327.462 24.9787 327.297 24.9907 327.178 24.9026L327.04 24.8001C326.2 24.1755 325.186 23.8405 324.133 23.8405C323.073 23.8405 322.053 24.1797 321.21 24.8115L321.072 24.9148C320.953 25.0037 320.787 24.992 320.682 24.8874L319.552 23.7602C319.426 23.6346 319.438 23.4276 319.578 23.3173L319.753 23.1791C321 22.193 322.534 21.6602 324.133 21.6602Z" fill="black"/>
<path d="M324.133 18.1904C326.657 18.1904 329.072 19.081 330.983 20.7134L331.146 20.8527C331.278 20.9653 331.285 21.166 331.163 21.2884L330.036 22.4124C329.926 22.5213 329.752 22.5289 329.634 22.43L329.494 22.3133C327.989 21.0551 326.104 20.3708 324.133 20.3708C322.155 20.3708 320.263 21.0599 318.756 22.3258L318.617 22.4431C318.498 22.5425 318.324 22.5351 318.214 22.426L317.087 21.3022C316.965 21.18 316.972 20.9796 317.104 20.8669L317.266 20.7275C319.18 19.0863 321.601 18.1904 324.133 18.1904Z" fill="black"/>
<path d="M360 21.1904V21.1904C360.552 21.1904 361 21.6381 361 22.1904V24.1904C361 24.7427 360.552 25.1904 360 25.1904V25.1904V21.1904Z" fill="#3C3C43" fill-opacity="0.6"/>
<path fill-rule="evenodd" clip-rule="evenodd" d="M339 17.1904H356C357.657 17.1904 359 18.5336 359 20.1904V26.1904C359 27.8473 357.657 29.1904 356 29.1904H339C337.343 29.1904 336 27.8473 336 26.1904V20.1904C336 18.5336 337.343 17.1904 339 17.1904ZM339 18.1904C337.895 18.1904 337 19.0859 337 20.1904V26.1904C337 27.295 337.895 28.1904 339 28.1904H356C357.105 28.1904 358 27.295 358 26.1904V20.1904C358 19.0859 357.105 18.1904 356 18.1904H339Z" fill="#3C3C43" fill-opacity="0.6"/>
<rect x="338" y="19.1904" width="19" height="8" rx="1" fill="black"/>
<path d="M37.8672 28.2793C40.5552 28.2793 42.1519 26.1772 42.1519 22.6177C42.1519 21.2773 41.8955 20.1494 41.4048 19.2778C40.6943 17.9229 39.4712 17.1904 37.9258 17.1904C35.626 17.1904 34 18.7358 34 20.9038C34 22.9399 35.4648 24.4194 37.479 24.4194C38.7168 24.4194 39.7202 23.8408 40.2183 22.8374H40.2402C40.2402 22.8374 40.2695 22.8374 40.2769 22.8374C40.2915 22.8374 40.3428 22.8374 40.3428 22.8374C40.3428 25.2544 39.4272 26.6973 37.8818 26.6973C36.9736 26.6973 36.2705 26.1992 36.0288 25.4009H34.1465C34.4614 27.1367 35.9336 28.2793 37.8672 28.2793ZM37.9331 22.918C36.7173 22.918 35.853 22.0537 35.853 20.8452C35.853 19.666 36.7612 18.7651 37.9404 18.7651C39.1196 18.7651 40.0278 19.6807 40.0278 20.8745C40.0278 22.0537 39.1416 22.918 37.9331 22.918Z" fill="black"/>
<path d="M45.243 28.1768C45.9388 28.1768 46.4148 27.6787 46.4148 27.0195C46.4148 26.353 45.9388 25.8623 45.243 25.8623C44.5545 25.8623 44.0711 26.353 44.0711 27.0195C44.0711 27.6787 44.5545 28.1768 45.243 28.1768ZM45.243 22.6836C45.9388 22.6836 46.4148 22.1929 46.4148 21.5337C46.4148 20.8672 45.9388 20.3765 45.243 20.3765C44.5545 20.3765 44.0711 20.8672 44.0711 21.5337C44.0711 22.1929 44.5545 22.6836 45.243 22.6836Z" fill="black"/>
<path d="M53.2706 28.0229H55.0797V26.0527H56.5079V24.4561H55.0797V17.4541H52.4137C50.546 20.2666 49.0592 22.6177 48.107 24.3682V26.0527H53.2706V28.0229ZM49.8575 24.3901C51.088 22.2222 52.1866 20.4863 53.1974 18.9922H53.2999V24.5H49.8575V24.3901Z" fill="black"/>
<path d="M60.5365 28.0229H62.4262V17.4541H60.5438L57.7826 19.3877V21.2041L60.412 19.3584H60.5365V28.0229Z" fill="black"/>
</g>
<defs>
<clipPath id="clip0_190_229">
<rect width="375" height="44" fill="white" transform="translate(0 0.19043)"/>
</clipPath>
</defs>
</svg>
